<svg xmlns="http://www.w3.org/2000/svg" xmlns:xlink="http://www.w3.org/1999/xlink" width="500" zoomAndPan="magnify" viewBox="0 0 375 374.999991" height="500" preserveAspectRatio="xMidYMid meet" version="1.0"><defs><g/><clipPath id="9704e41950"><path d="M 91.257812 66.410156 L 156.628906 66.410156 L 156.628906 305.835938 L 91.257812 305.835938 Z M 91.257812 66.410156 " clip-rule="nonzero"/></clipPath><clipPath id="710ae12dd5"><path d="M 128 270.152344 L 193.367188 270.152344 L 193.367188 312.644531 L 128 312.644531 Z M 128 270.152344 " clip-rule="nonzero"/></clipPath><clipPath id="e6f162cb23"><path d="M 85 64 L 187 64 L 187 309 L 85 309 Z M 85 64 " clip-rule="nonzero"/></clipPath><clipPath id="da3d53dde9"><path d="M 74.972656 69.285156 L 183.367188 61.410156 L 201.007812 304.277344 L 92.613281 312.152344 Z M 74.972656 69.285156 " clip-rule="nonzero"/></clipPath><clipPath id="690d8d9edb"><path d="M 74.972656 69.285156 L 183.367188 61.410156 L 201.007812 304.277344 L 92.613281 312.152344 Z M 74.972656 69.285156 " clip-rule="nonzero"/></clipPath></defs><rect x="-37.5" width="450" fill="#ffffff" y="-37.499999" height="449.999989" fill-opacity="1"/><rect x="-37.5" width="450" fill="#ffffff" y="-37.499999" height="449.999989" fill-opacity="1"/><rect x="-37.5" width="450" fill="#000000" y="-37.499999" height="449.999989" fill-opacity="1"/><g fill="#ffffff" fill-opacity="1"><g transform="translate(88.542291, 303.172892)"><g><path d="M 170.828125 0 C 165.753906 0 160.726562 -2.585938 155.75 -7.765625 C 150.78125 -12.941406 146.316406 -19.382812 142.359375 -27.09375 C 138.398438 -34.8125 133.78125 -43.1875 128.5 -52.21875 C 123.21875 -61.25 117.9375 -69.722656 112.65625 -77.640625 C 107.382812 -85.554688 100.6875 -92.253906 92.5625 -97.734375 C 84.445312 -103.222656 75.820312 -106.171875 66.6875 -106.578125 L 66.6875 -68.8125 C 66.6875 -46.894531 67.34375 -32.023438 68.65625 -24.203125 C 69.976562 -16.390625 71.859375 -11.46875 74.296875 -9.4375 C 79.171875 -5.582031 86.679688 -3.65625 96.828125 -3.65625 L 97.4375 0 L 15.828125 0 L 16.4375 -3.65625 C 26.382812 -3.65625 33.691406 -5.484375 38.359375 -9.140625 C 42.222656 -12.179688 44.457031 -22.125 45.0625 -38.96875 C 45.46875 -45.675781 45.671875 -55.625 45.671875 -68.8125 L 45.671875 -145.859375 C 45.671875 -168.390625 45.0625 -183.304688 43.84375 -190.609375 C 42.625 -197.921875 40.796875 -202.488281 38.359375 -204.3125 C 33.691406 -207.769531 26.382812 -209.5 16.4375 -209.5 L 15.828125 -213.15625 L 86.484375 -213.15625 C 137.640625 -213.15625 163.21875 -195.898438 163.21875 -161.390625 C 163.21875 -146.566406 157.988281 -134.128906 147.53125 -124.078125 C 137.070312 -114.035156 124.4375 -108.203125 109.625 -106.578125 C 124.4375 -97.847656 138.140625 -81.8125 150.734375 -58.46875 C 155.597656 -49.332031 160.769531 -40.601562 166.25 -32.28125 C 178.226562 -13.195312 193.660156 -3.65625 212.546875 -3.65625 L 213.15625 0 Z M 66.6875 -206.140625 L 66.6875 -112.671875 L 85.875 -112.671875 C 101.300781 -112.671875 114.085938 -116.628906 124.234375 -124.546875 C 134.390625 -132.460938 139.46875 -144.234375 139.46875 -159.859375 C 139.46875 -190.710938 121.804688 -206.140625 86.484375 -206.140625 Z M 66.6875 -206.140625 "/></g></g></g><g clip-path="url(#9704e41950)"><path fill="#000000" d="M 91.257812 66.425781 L 156.628906 66.425781 L 156.628906 305.820312 L 91.257812 305.820312 L 91.257812 66.425781 " fill-opacity="1" fill-rule="nonzero"/></g><g clip-path="url(#710ae12dd5)"><path fill="#000000" d="M 128 270.152344 L 193.367188 270.152344 L 193.367188 312.644531 L 128 312.644531 L 128 270.152344 " fill-opacity="1" fill-rule="nonzero"/></g><g clip-path="url(#e6f162cb23)"><g clip-path="url(#da3d53dde9)"><g clip-path="url(#690d8d9edb)"><path fill="#ffffff" d="M 149.816406 122.34375 C 149.703125 122.265625 149.628906 122.140625 149.59375 121.992188 C 149.492188 121.496094 149.433594 121 149.378906 120.503906 C 147.78125 115.027344 145.25 109.835938 143.78125 104.328125 C 141.441406 95.511719 141.496094 85.429688 143.597656 76.597656 C 144.296875 73.628906 144.886719 70.671875 145.828125 67.75 C 145.96875 67.285156 146.125 66.445312 146.332031 65.710938 C 146.507812 65.113281 146.753906 64.59375 147.035156 64.289062 C 147.21875 64.101562 147.394531 64.113281 147.523438 64.101562 C 147.699219 64.113281 147.835938 64.1875 147.957031 64.355469 C 148.003906 64.414062 148.054688 64.519531 148.066406 64.671875 C 148.070312 64.757812 148.0625 64.910156 148.066406 65 C 148.085938 65.542969 148.101562 66.085938 148.121094 66.625 C 148.152344 67.953125 148.269531 69.292969 148.476562 70.605469 C 149.097656 74.410156 149.753906 78.347656 150.9375 82.027344 C 153.421875 89.832031 153.972656 98.34375 152.734375 106.441406 C 152.152344 110.164062 150.878906 113.585938 150.53125 117.179688 L 150.53125 117.199219 C 151.417969 121.3125 152.113281 125.484375 152.527344 129.699219 C 152.902344 133.652344 153.015625 137.628906 152.738281 141.609375 C 152.648438 143.050781 152.492188 144.476562 152.289062 145.90625 C 153.292969 143.808594 154.363281 141.773438 155.484375 139.820312 C 156.953125 137.277344 158.367188 134.519531 160.292969 132.269531 C 163.441406 128.578125 167.183594 125.828125 170.90625 122.8125 C 172.492188 121.546875 174.292969 120.542969 175.925781 119.339844 C 177.722656 118.011719 179.417969 116.496094 181.238281 115.164062 C 182.355469 114.34375 183.425781 113.484375 184.519531 112.640625 C 184.847656 112.378906 185.15625 112.140625 185.464844 111.855469 C 185.585938 111.738281 185.738281 111.464844 185.863281 111.347656 C 185.984375 111.230469 186.109375 111.15625 186.195312 111.128906 C 186.386719 111.070312 186.539062 111.101562 186.679688 111.203125 C 186.792969 111.28125 186.933594 111.402344 186.972656 111.660156 C 187.046875 112.066406 186.910156 112.578125 186.664062 113.117188 C 186.382812 113.726562 185.953125 114.386719 185.742188 114.792969 C 184.570312 117.25 183.558594 119.785156 182.273438 122.183594 C 178.800781 128.640625 174.6875 134.703125 168.550781 138.957031 C 164.882812 141.511719 160.953125 143.144531 157.585938 145.371094 C 154.550781 147.375 151.988281 149.867188 150.570312 153.996094 C 148.902344 159.820312 146.457031 165.109375 143.625 170.519531 C 138.539062 180.222656 132.148438 190.285156 126.808594 204.621094 C 124.933594 209.652344 123.515625 214.742188 122.535156 219.839844 C 122.613281 219.679688 122.6875 219.523438 122.761719 219.367188 C 125.101562 214.710938 129.070312 208.484375 133.167969 205.203125 C 138.027344 201.347656 145.71875 198.132812 151.164062 194.84375 C 153.375 193.507812 155.261719 191.890625 157.136719 190.144531 C 157.542969 189.765625 158.0625 189.121094 158.613281 188.578125 C 159.039062 188.15625 159.492188 187.820312 159.917969 187.65625 C 160.191406 187.550781 160.371094 187.625 160.484375 187.683594 C 160.667969 187.777344 160.789062 187.941406 160.785156 188.226562 C 160.792969 188.3125 160.757812 188.445312 160.679688 188.582031 C 160.585938 188.742188 160.363281 189.019531 160.289062 189.175781 C 160.039062 189.628906 159.789062 190.0625 159.558594 190.511719 C 158.851562 191.847656 158.324219 193.28125 157.703125 194.652344 C 157.460938 195.191406 157.195312 195.734375 156.949219 196.25 C 157.023438 196.355469 157.03125 196.507812 156.929688 196.601562 C 156.769531 196.785156 156.628906 196.972656 156.46875 197.15625 C 155.398438 199.171875 154.226562 201.0625 152.902344 202.921875 C 152.976562 203.023438 152.988281 203.175781 152.886719 203.269531 C 152.207031 204.125 151.503906 204.960938 150.757812 205.734375 C 150.515625 206.03125 150.257812 206.355469 149.996094 206.660156 C 145.136719 212.582031 139.117188 216.066406 132.597656 219.871094 C 130.34375 221.1875 127.902344 222.386719 125.792969 223.933594 C 123.769531 225.429688 122.070312 227.226562 121.210938 229.792969 C 121.140625 230.015625 121.070312 230.261719 121.023438 230.480469 C 120.039062 242.71875 121.261719 255.078125 124.09375 267.382812 C 124.097656 257.222656 129.671875 245.828125 135.253906 238.152344 C 135.375 237.992188 135.492188 237.832031 135.613281 237.667969 C 137.847656 234.589844 140.445312 231.988281 143.386719 229.574219 C 143.570312 229.410156 143.851562 229.085938 144.160156 228.824219 C 144.425781 228.585938 144.691406 228.371094 144.945312 228.285156 C 145.179688 228.203125 145.398438 228.1875 145.597656 228.261719 C 145.800781 228.332031 146.007812 228.472656 146.15625 228.742188 C 147.953125 232.179688 147.488281 237.480469 145.839844 242.996094 C 143.429688 251.136719 138.5 259.742188 134.996094 263.371094 C 133.375 265.054688 130.992188 266.382812 128.96875 267.945312 C 127.320312 269.21875 125.921875 270.644531 125.5 272.636719 C 128.867188 283.335938 136.699219 299.71875 143.707031 306.242188 C 144.058594 306.5625 144.074219 307.105469 143.75 307.457031 C 143.488281 307.734375 143.101562 307.808594 142.765625 307.65625 C 142.726562 307.703125 142.660156 307.710938 142.617188 307.734375 C 142.6875 307.792969 142.734375 307.855469 142.804688 307.917969 C 142.921875 308.039062 142.914062 308.214844 142.8125 308.328125 C 142.691406 308.445312 142.515625 308.4375 142.402344 308.335938 C 141.605469 307.566406 140.910156 306.726562 140.21875 305.863281 C 140.144531 305.78125 140.136719 305.652344 140.195312 305.558594 C 139.695312 304.988281 139.195312 304.390625 138.761719 303.792969 C 138.664062 303.667969 138.695312 303.472656 138.820312 303.394531 C 138.839844 303.394531 138.839844 303.375 138.859375 303.371094 C 136.113281 299.742188 133.359375 295.066406 130.914062 290.195312 C 130.777344 290.140625 130.660156 290.019531 130.605469 289.871094 C 130.3125 289.109375 130.019531 288.367188 129.683594 287.652344 C 129.582031 287.464844 129.5 287.25 129.402344 287.0625 C 128.890625 286.011719 128.335938 284.984375 127.71875 283.984375 C 126.769531 283.53125 125.710938 283.328125 124.65625 283.1875 C 123.46875 283.03125 122.285156 282.921875 121.152344 282.636719 C 112.210938 280.347656 105.21875 277.328125 98.753906 270.464844 C 98.019531 269.667969 94.050781 264.757812 93.027344 262.371094 C 92.792969 261.84375 92.695312 261.394531 92.738281 261.109375 C 92.765625 260.847656 92.882812 260.664062 93.046875 260.519531 C 93.3125 260.285156 93.714844 260.144531 94.257812 260.105469 C 94.863281 260.0625 95.675781 260.179688 96.605469 260.371094 C 99.96875 261.128906 104.785156 263.257812 105.847656 263.792969 C 113.554688 267.691406 120.992188 272.941406 126.28125 279.804688 L 126.257812 279.761719 C 125.644531 278.21875 125.050781 276.648438 124.523438 275.054688 C 124.078125 273.761719 123.65625 272.441406 123.277344 271.121094 C 123.160156 270.695312 123.042969 270.269531 122.921875 269.820312 C 122.863281 269.605469 122.824219 269.390625 122.765625 269.15625 C 122.703125 268.898438 122.640625 268.644531 122.578125 268.386719 C 122.390625 267.574219 122.199219 266.761719 122.03125 265.96875 C 121.636719 264.101562 121.257812 262.214844 120.925781 260.324219 C 120.773438 259.398438 120.617188 258.476562 120.464844 257.570312 C 120.378906 257.316406 120.296875 257.0625 120.210938 256.785156 C 120.167969 256.789062 120.144531 256.769531 120.101562 256.75 C 104.695312 250.949219 91.867188 239.214844 87.894531 222.878906 C 87.671875 221.9375 86.011719 215.855469 85.496094 212.953125 C 85.347656 212.09375 85.324219 211.488281 85.394531 211.242188 C 85.480469 210.933594 85.664062 210.789062 85.878906 210.730469 C 86.050781 210.671875 86.242188 210.660156 86.46875 210.773438 C 86.628906 210.847656 86.832031 210.984375 87.042969 211.167969 C 87.253906 211.347656 87.464844 211.570312 87.625 211.667969 C 88.695312 212.351562 89.707031 213.082031 90.835938 213.632812 C 94.402344 215.375 97.324219 217.210938 100.242188 219.914062 C 110.890625 229.804688 119.695312 251.796875 119.695312 251.796875 C 118.273438 238.796875 118.878906 225.828125 122.242188 213.070312 C 122.238281 213.050781 122.238281 213.050781 122.238281 213.027344 C 121.976562 209.152344 120.230469 205.492188 118.019531 202.019531 C 115.757812 198.480469 113.03125 195.132812 110.847656 192.027344 C 107.007812 186.5625 104.367188 180.441406 103.167969 173.871094 C 102.511719 170.21875 102.335938 166.574219 102.414062 162.847656 C 102.441406 161.738281 102.492188 160.644531 102.542969 159.53125 C 102.550781 159.074219 102.585938 158.613281 102.617188 158.15625 C 102.613281 158.132812 102.570312 157.808594 102.558594 157.679688 C 102.570312 157.503906 102.605469 157.394531 102.664062 157.300781 C 102.738281 157.167969 102.863281 157.070312 102.992188 157.039062 C 103.117188 156.988281 103.292969 156.972656 103.496094 157.066406 C 103.746094 157.203125 104.003906 157.488281 104.230469 157.886719 C 104.558594 158.515625 104.824219 159.472656 105.050781 159.871094 C 106.050781 161.691406 107.296875 163.558594 108.613281 165.183594 C 111.074219 168.183594 113.480469 170.726562 115.15625 174.285156 C 118.96875 182.449219 119.199219 191.007812 120.617188 199.738281 C 121.171875 203.179688 122.304688 206.449219 123.179688 209.824219 C 123.773438 207.824219 124.457031 205.835938 125.183594 203.847656 C 129.046875 193.46875 133.464844 185.3125 137.542969 177.921875 C 137.539062 177.859375 137.53125 177.773438 137.550781 177.707031 C 138.464844 172.917969 137.402344 168.511719 135.613281 164.265625 C 133.796875 159.9375 131.230469 155.792969 129.1875 151.65625 C 126.304688 145.792969 125.371094 138.046875 126.410156 131.660156 C 126.726562 129.722656 127.34375 125.9375 128.300781 124.148438 C 128.335938 123.992188 128.347656 123.859375 128.378906 123.707031 C 128.410156 123.550781 128.554688 123.453125 128.710938 123.464844 C 128.863281 123.496094 128.960938 123.640625 128.953125 123.796875 C 129.082031 123.808594 129.199219 123.886719 129.316406 124.007812 C 129.363281 124.070312 129.4375 124.171875 129.46875 124.34375 C 129.503906 124.496094 129.503906 124.800781 129.558594 124.949219 C 129.675781 125.394531 129.859375 125.816406 130 126.242188 C 130.441406 127.515625 131.027344 128.671875 131.636719 129.867188 C 133.464844 133.476562 136.0625 136.574219 137.222656 140.515625 C 139.3125 147.71875 137.953125 154.804688 137.960938 162.117188 C 137.96875 166.378906 139.117188 170.496094 139.292969 174.726562 C 140.253906 172.984375 141.195312 171.261719 142.074219 169.5625 C 149.648438 155.128906 154.367188 141.511719 148.421875 115.722656 Z M 125.910156 281.855469 C 125.910156 281.855469 125.886719 281.878906 125.886719 281.878906 C 125.933594 281.894531 125.953125 281.894531 126 281.914062 Z M 98.199219 267.9375 C 98.894531 268.800781 99.464844 269.476562 99.683594 269.746094 C 105.980469 276.425781 112.8125 279.34375 121.511719 281.585938 C 121.84375 281.671875 122.199219 281.730469 122.550781 281.792969 C 122.015625 281.613281 121.476562 281.414062 120.960938 281.210938 C 119.128906 280.539062 117.296875 279.910156 115.515625 279.082031 C 110.402344 276.714844 105.0625 273.96875 100.683594 270.367188 C 99.78125 269.628906 99 268.75 98.199219 267.9375 Z M 96.515625 264.511719 C 97.898438 265.871094 99.425781 267.109375 100.96875 268.257812 C 104.5625 270.957031 108.402344 273.179688 112.308594 275.421875 C 116.058594 277.566406 120.089844 279.992188 124.285156 281.382812 C 123.113281 280.859375 121.976562 280.160156 120.847656 279.609375 C 118.925781 278.660156 116.988281 277.78125 115.125 276.695312 C 112.714844 275.285156 110.414062 273.601562 108.101562 272.050781 C 105.332031 270.203125 102.601562 268.269531 99.792969 266.472656 C 98.722656 265.832031 97.546875 265.242188 96.515625 264.511719 Z M 125.28125 280.421875 C 120.097656 273.789062 112.867188 268.722656 105.363281 264.914062 C 104.34375 264.402344 99.664062 262.324219 96.390625 261.585938 C 95.613281 261.402344 94.910156 261.300781 94.390625 261.335938 C 94.347656 261.339844 94.300781 261.34375 94.257812 261.347656 C 94.898438 261.472656 95.507812 261.757812 96.152344 261.925781 C 96.863281 262.117188 97.628906 262.191406 98.34375 262.421875 C 100.308594 263.082031 102.136719 264.277344 103.96875 265.234375 C 105.375 265.980469 106.835938 266.613281 108.179688 267.429688 C 110.457031 268.808594 112.558594 270.464844 114.699219 272.046875 C 117.070312 273.8125 119.484375 275.53125 121.816406 277.386719 C 123.019531 278.363281 124.121094 279.417969 125.28125 280.421875 Z M 94.457031 261.984375 C 94.574219 262.109375 94.714844 262.226562 94.832031 262.328125 C 95.941406 262.902344 97.125 263.335938 98.234375 263.910156 C 99.34375 264.480469 100.375 265.191406 101.464844 265.808594 C 102.644531 266.484375 103.886719 267.066406 105.046875 267.765625 C 107.597656 269.320312 110.019531 271.148438 112.511719 272.796875 C 116.261719 275.265625 120.09375 277.664062 123.945312 279.996094 C 123.128906 279.269531 122.3125 278.523438 121.457031 277.847656 C 119.148438 276.011719 116.734375 274.292969 114.363281 272.53125 C 112.246094 270.964844 110.167969 269.308594 107.890625 267.953125 C 106.546875 267.136719 105.085938 266.5 103.707031 265.773438 C 101.914062 264.816406 100.109375 263.640625 98.167969 263 C 97.476562 262.765625 96.730469 262.691406 96.019531 262.503906 C 95.488281 262.367188 94.96875 262.144531 94.457031 261.984375 Z M 96.390625 263.695312 C 97.519531 264.570312 98.898438 265.230469 100.105469 265.992188 C 102.914062 267.789062 105.648438 269.726562 108.414062 271.570312 C 110.726562 273.121094 113.007812 274.804688 115.414062 276.195312 C 117.257812 277.261719 119.171875 278.144531 121.089844 279.070312 C 121.675781 279.355469 122.246094 279.683594 122.832031 279.988281 C 119.234375 277.8125 115.675781 275.570312 112.175781 273.277344 C 109.683594 271.652344 107.289062 269.84375 104.714844 268.292969 C 103.554688 267.59375 102.335938 267.007812 101.152344 266.332031 C 100.085938 265.710938 99.054688 265.003906 97.949219 264.453125 C 97.449219 264.183594 96.910156 263.941406 96.390625 263.695312 Z M 96.601562 265.421875 C 97.171875 266.054688 97.761719 266.683594 98.371094 267.273438 C 99.261719 268.164062 100.09375 269.128906 101.066406 269.925781 C 105.398438 273.484375 110.691406 276.214844 115.761719 278.566406 C 117 279.128906 118.253906 279.601562 119.507812 280.078125 C 116.910156 278.808594 114.386719 277.335938 112 275.964844 C 108.09375 273.726562 104.226562 271.460938 100.613281 268.761719 C 99.230469 267.710938 97.863281 266.613281 96.601562 265.421875 Z M 144.382812 231.003906 C 142.78125 233.535156 141.601562 236.496094 140.105469 238.996094 C 134.480469 248.457031 129.542969 258.457031 126.257812 268.988281 C 130.710938 261.050781 134.496094 252.59375 138.519531 244.445312 C 140.742188 239.953125 143.296875 235.847656 144.382812 231.003906 Z M 137.203125 237.683594 C 137.023438 237.914062 136.824219 238.167969 136.648438 238.421875 C 136.527344 238.582031 136.410156 238.742188 136.289062 238.902344 C 130.625 246.671875 124.941406 258.355469 125.378906 268.554688 C 126.050781 264.933594 127.34375 261.46875 128.417969 257.929688 C 130.515625 251.140625 133.121094 243.835938 137.203125 237.683594 Z M 145.289062 229.675781 C 145.246094 229.722656 145.226562 229.746094 145.1875 229.792969 C 144.300781 235.277344 141.46875 239.746094 139.019531 244.691406 C 135.410156 251.980469 132.015625 259.519531 128.140625 266.699219 C 133.875 258.449219 139.597656 249.652344 142.648438 240.117188 C 143.792969 236.683594 145.070312 233.304688 145.289062 229.675781 Z M 143.6875 231.011719 C 135.929688 237.863281 131.914062 248.492188 128.996094 258.105469 C 128.117188 261 127.082031 263.835938 126.359375 266.761719 C 129.652344 256.925781 134.328125 247.578125 139.605469 238.683594 C 141.042969 236.273438 142.1875 233.46875 143.6875 231.011719 Z M 146.261719 234.699219 C 145.957031 236.789062 145.261719 238.925781 144.785156 240.722656 C 143.375 246.222656 138.121094 256.3125 134.421875 260.84375 C 133.058594 262.488281 131.671875 264.070312 130.332031 265.691406 C 131.761719 264.714844 133.195312 263.761719 134.269531 262.640625 C 137.667969 259.085938 142.480469 250.664062 144.839844 242.722656 C 145.660156 239.898438 146.199219 237.140625 146.261719 234.699219 Z M 145.710938 231.300781 C 145.28125 234.378906 144.1875 237.328125 143.230469 240.316406 C 140.335938 249.316406 135.105469 257.683594 129.6875 265.519531 C 131.089844 263.828125 132.539062 262.199219 133.9375 260.488281 C 137.597656 256.023438 142.796875 246.046875 144.1875 240.59375 C 144.59375 239.019531 145.183594 237.214844 145.527344 235.382812 C 145.820312 233.988281 145.933594 232.589844 145.710938 231.300781 Z M 119.335938 255.238281 C 119.335938 255.238281 119.339844 255.261719 119.339844 255.261719 L 119.40625 255.277344 Z M 89.886719 225.453125 C 90.285156 226.730469 90.746094 227.957031 91.269531 229.183594 C 95.402344 236.019531 103.1875 242.765625 108.425781 247.414062 C 111.730469 250.328125 114.359375 253.269531 118.539062 254.753906 C 110.386719 250.144531 104.777344 242.476562 98.515625 235.730469 C 95.355469 232.367188 92.148438 229.269531 89.886719 225.453125 Z M 87.820312 217.660156 C 88.402344 219.988281 88.996094 222.1875 89.121094 222.703125 L 89.125 222.722656 C 91.3125 227.699219 95.191406 231.3125 98.945312 235.328125 C 104.683594 241.484375 109.847656 248.417969 116.914062 253.0625 C 114.054688 250.550781 111.167969 247.996094 108.613281 245.222656 C 103.886719 240.082031 99.996094 234.207031 95.800781 228.613281 C 92.761719 224.570312 89.9375 221.621094 87.820312 217.660156 Z M 90.332031 214.757812 C 95.425781 219.871094 98.992188 226.359375 102.996094 232.355469 C 107.835938 239.621094 113.242188 246.28125 118.90625 252.898438 C 118.820312 252.640625 118.714844 252.390625 118.609375 252.113281 C 117.910156 251.511719 117.246094 250.753906 116.621094 249.90625 C 115 247.71875 113.605469 245.011719 112.402344 243.402344 C 108.472656 238.183594 104.65625 232.996094 101.226562 227.4375 C 98.804688 223.476562 96.863281 219.570312 93.546875 216.460938 C 92.546875 215.878906 91.503906 215.324219 90.421875 214.792969 C 90.375 214.777344 90.355469 214.777344 90.332031 214.757812 Z M 87.734375 213.203125 C 96.300781 225.921875 104.222656 239.035156 115.261719 249.789062 C 116.222656 250.71875 117.078125 251.746094 117.976562 252.726562 C 112.480469 246.269531 107.238281 239.753906 102.5 232.675781 C 98.027344 225.972656 94.125 218.703125 88.007812 213.382812 C 87.917969 213.324219 87.828125 213.265625 87.734375 213.203125 Z M 92.890625 232.589844 C 97.402344 241.054688 104.640625 247.753906 113.164062 252.378906 C 111.410156 251.027344 109.8125 249.445312 108.023438 247.855469 C 103.550781 243.871094 97.230469 238.390625 92.890625 232.589844 Z M 86.699219 212.714844 C 86.769531 213.101562 86.847656 213.550781 86.949219 214.066406 C 87.011719 214.324219 87.050781 214.582031 87.113281 214.839844 C 89.265625 220.1875 92.59375 223.429688 96.234375 228.277344 C 100.40625 233.851562 104.292969 239.703125 109 244.847656 C 111.292969 247.335938 113.855469 249.628906 116.417969 251.902344 C 115.894531 251.332031 115.375 250.761719 114.8125 250.214844 C 103.183594 238.828125 94.980469 224.820312 85.820312 211.429688 Z M 95.554688 217.730469 C 98.003906 220.554688 99.699219 223.828125 101.726562 227.160156 C 105.136719 232.722656 108.953125 237.886719 112.859375 243.085938 C 114.0625 244.695312 115.457031 247.402344 117.074219 249.59375 C 117.367188 249.984375 117.652344 250.355469 117.960938 250.703125 C 115.945312 246.910156 113.507812 243.367188 111.304688 239.695312 C 106.960938 232.375 102.734375 225.105469 97.046875 218.796875 C 96.5625 218.417969 96.058594 218.0625 95.554688 217.730469 Z M 99.855469 221.179688 C 104.425781 226.835938 108.058594 233.078125 111.824219 239.355469 C 113.410156 241.980469 115.097656 244.554688 116.683594 247.203125 C 112.652344 237.574219 107.269531 228.195312 99.855469 221.179688 Z M 156.460938 193.457031 C 152.914062 196.785156 148.367188 198.898438 144.433594 201.710938 C 137.121094 206.898438 130.679688 213.261719 125.601562 220.660156 C 124.636719 222.078125 123.410156 223.453125 122.402344 224.917969 C 122.367188 225.007812 122.308594 225.078125 122.269531 225.167969 C 122.449219 224.9375 122.628906 224.726562 122.808594 224.496094 C 124.144531 222.8125 125.554688 221.207031 126.960938 219.582031 C 132.546875 213.171875 138.675781 207.589844 145.441406 202.417969 C 149.070312 199.632812 153.480469 197.070312 156.460938 193.457031 Z M 137.019531 203.96875 C 135.914062 204.65625 134.878906 205.382812 133.949219 206.105469 C 129.980469 209.289062 126.128906 215.335938 123.84375 219.875 C 123.273438 221.003906 122.707031 222.175781 122.1875 223.410156 C 123.238281 221.417969 124.496094 219.523438 125.664062 217.652344 C 128.753906 212.792969 132.535156 207.882812 137.019531 203.96875 Z M 152.085938 202.175781 C 150.648438 203.671875 149.144531 205.109375 147.585938 206.464844 C 143.71875 209.855469 139.199219 212.6875 135.015625 215.667969 C 132.40625 217.53125 129.886719 219.433594 127.472656 221.546875 C 128.824219 220.6875 130.179688 219.828125 131.480469 218.882812 C 134.625 216.589844 137.597656 214.042969 140.8125 211.851562 C 142.992188 210.367188 145.417969 209.277344 147.617188 207.765625 C 148.160156 207.183594 148.683594 206.601562 149.203125 205.953125 C 150.222656 204.703125 151.199219 203.4375 152.085938 202.175781 Z M 155.382812 196.867188 C 154.90625 197.488281 154.402344 198.089844 153.875 198.609375 C 152.3125 200.199219 150.5 201.59375 148.820312 203.066406 C 143.847656 207.476562 138.632812 211.53125 133.375 215.589844 C 131.316406 217.199219 129.390625 218.882812 127.539062 220.671875 C 129.835938 218.722656 132.191406 216.941406 134.652344 215.171875 C 138.835938 212.191406 143.3125 209.363281 147.183594 205.992188 C 149.597656 203.878906 151.890625 201.582031 154.046875 199.160156 C 154.515625 198.429688 154.960938 197.660156 155.382812 196.867188 Z M 156.320312 194.492188 C 153.335938 197.777344 149.222656 200.230469 145.800781 202.851562 C 139.074219 207.996094 132.964844 213.53125 127.421875 219.941406 C 127.261719 220.125 127.101562 220.3125 126.9375 220.476562 C 128.871094 218.59375 130.875 216.816406 133.039062 215.136719 C 138.273438 211.058594 143.488281 207.023438 148.460938 202.636719 C 150.121094 201.164062 151.9375 199.792969 153.476562 198.203125 C 154.488281 197.148438 155.460938 195.859375 156.320312 194.492188 Z M 144.363281 199.886719 C 143.105469 200.542969 141.824219 201.203125 140.589844 201.878906 C 134.730469 206.046875 129.941406 212.054688 126.207031 217.941406 C 125.957031 218.351562 125.699219 218.738281 125.425781 219.148438 C 125.582031 218.921875 125.722656 218.714844 125.878906 218.507812 C 130.785156 211.40625 137.285156 204.96875 144.363281 199.886719 Z M 145.726562 209.625 C 144.179688 210.519531 142.605469 211.328125 141.132812 212.328125 C 138.453125 214.132812 135.949219 216.210938 133.390625 218.15625 C 137.835938 215.550781 142.03125 213.027344 145.726562 209.625 Z M 157.679688 191.324219 C 156.375 192.527344 155.039062 193.671875 153.613281 194.6875 C 153.613281 194.6875 153.636719 194.707031 153.636719 194.707031 C 153.710938 194.855469 153.679688 195.03125 153.535156 195.105469 C 150.988281 196.640625 148.308594 197.835938 145.863281 199.539062 C 140.285156 203.382812 135.03125 208.117188 130.578125 213.355469 C 134.605469 208.800781 139.164062 204.726562 144.132812 201.207031 C 148.503906 198.105469 153.652344 195.839844 157.300781 191.785156 C 157.417969 191.648438 157.539062 191.488281 157.679688 191.324219 Z M 104.078125 160.59375 C 104.285156 161.625 104.53125 162.652344 104.90625 163.625 C 105.441406 165 106.3125 166.199219 106.765625 167.601562 C 109.363281 175.8125 112.078125 184.082031 115.355469 192.046875 C 116.335938 194.457031 117.464844 196.792969 118.613281 199.125 C 118.769531 199.4375 118.945312 199.773438 119.121094 200.085938 C 118.4375 198.484375 118.070312 196.746094 117.539062 195.109375 C 116.414062 191.644531 115.230469 188.226562 114.109375 184.761719 C 112.253906 179.042969 110.398438 173.234375 107.972656 167.734375 C 107.03125 165.601562 105.710938 163.566406 104.601562 161.515625 C 104.402344 161.179688 104.25 160.886719 104.078125 160.59375 Z M 107.886719 166.238281 C 108.089844 166.65625 108.292969 167.054688 108.476562 167.476562 C 110.902344 173.003906 112.761719 178.832031 114.640625 184.570312 C 115.761719 188.035156 116.945312 191.453125 118.070312 194.917969 C 118.347656 195.75 118.5625 196.625 118.820312 197.476562 C 118.457031 195.761719 118.136719 194.042969 117.6875 192.359375 C 116.550781 188.109375 115.050781 183.953125 113.871094 179.707031 C 112.898438 176.1875 112.132812 171.957031 110.054688 168.820312 C 109.339844 167.960938 108.625 167.121094 107.886719 166.238281 Z M 104.613281 174.875 C 105.855469 180.878906 108.351562 186.464844 111.875 191.496094 C 113.210938 193.402344 114.726562 195.359375 116.222656 197.402344 C 115.59375 196.230469 114.964844 195.058594 114.316406 193.910156 C 112.199219 190.273438 110.152344 186.636719 108.222656 182.882812 C 106.855469 180.261719 105.597656 177.609375 104.613281 174.875 Z M 103.695312 161.601562 L 103.675781 161.953125 C 103.722656 162.882812 103.8125 163.835938 103.964844 164.757812 C 104.339844 166.910156 105.175781 168.828125 105.847656 170.867188 C 106.734375 173.480469 107.496094 176.167969 108.53125 178.746094 C 109.40625 180.902344 110.511719 182.933594 111.410156 185.089844 C 112.863281 188.617188 114.464844 192.070312 116.191406 195.449219 C 115.699219 194.394531 115.253906 193.339844 114.804688 192.261719 C 111.523438 184.273438 108.8125 175.984375 106.1875 167.773438 C 105.742188 166.394531 104.871094 165.195312 104.355469 163.839844 C 104.0625 163.097656 103.855469 162.328125 103.691406 161.558594 Z M 112 171.3125 C 113.085938 173.976562 113.714844 176.933594 114.425781 179.539062 C 115.605469 183.78125 117.105469 187.9375 118.242188 192.1875 C 118.386719 192.71875 118.515625 193.253906 118.640625 193.8125 C 117.824219 187.363281 117.019531 181.046875 114.15625 174.945312 C 113.539062 173.617188 112.800781 172.429688 112 171.3125 Z M 103.648438 166.089844 C 103.695312 167.628906 103.785156 169.167969 103.941406 170.703125 C 104.941406 174.875 106.726562 178.769531 108.726562 182.628906 C 110.324219 185.710938 111.976562 188.703125 113.699219 191.710938 C 112.695312 189.609375 111.757812 187.476562 110.859375 185.300781 C 109.964844 183.167969 108.855469 181.117188 107.980469 178.960938 C 106.945312 176.382812 106.160156 173.695312 105.296875 171.0625 C 104.738281 169.382812 104.078125 167.777344 103.648438 166.089844 Z M 127.210938 137.304688 C 127.234375 142.113281 128.277344 147.171875 130.292969 151.269531 C 131.851562 154.441406 133.714844 157.613281 135.324219 160.871094 C 135.15625 160.359375 134.96875 159.875 134.761719 159.410156 C 131.816406 152.769531 128.410156 145.75 127.363281 138.492188 C 127.3125 138.101562 127.261719 137.691406 127.210938 137.304688 Z M 133.714844 135.699219 C 134.160156 137.628906 134.285156 139.640625 134.472656 141.652344 C 134.710938 144.332031 135.125 147.046875 135.191406 149.738281 C 135.234375 151.238281 135.238281 152.78125 135.304688 154.300781 C 135.671875 156.058594 136.039062 157.835938 136.429688 159.59375 C 136.429688 159.570312 136.425781 159.527344 136.421875 159.507812 C 136.183594 156.5 136.425781 153.523438 136.402344 150.519531 C 136.390625 146.148438 136.015625 141.605469 134.6875 137.414062 C 134.363281 136.828125 134.039062 136.265625 133.714844 135.699219 Z M 136.167969 141.027344 C 136.765625 144.160156 136.957031 147.367188 136.964844 150.5 C 136.972656 153.265625 136.78125 156.019531 136.9375 158.773438 C 137.199219 152.8125 137.886719 146.953125 136.167969 141.027344 Z M 127.929688 130.09375 C 127.820312 130.6875 127.726562 131.21875 127.652344 131.703125 C 127.554688 133.929688 127.605469 136.144531 127.921875 138.429688 C 128.960938 145.535156 132.246094 152.390625 135.160156 158.902344 C 135.089844 158.558594 135.042969 158.214844 134.996094 157.847656 C 134.566406 156.441406 134.09375 155.042969 133.644531 153.636719 C 132.300781 149.535156 130.550781 145.503906 129.503906 141.292969 C 128.628906 137.636719 127.984375 133.855469 127.929688 130.09375 Z M 128.648438 126.820312 L 128.632812 126.886719 C 128.238281 131.660156 128.9375 136.503906 130.082031 141.144531 C 131.105469 145.335938 132.855469 149.34375 134.195312 153.445312 C 134.367188 154 134.5625 154.550781 134.753906 155.101562 C 134.734375 154.863281 134.71875 154.625 134.722656 154.386719 C 133.558594 148.835938 132.433594 143.28125 131.207031 137.753906 C 130.820312 136.042969 130.5 134.300781 130.070312 132.59375 C 129.5625 130.691406 128.964844 128.753906 128.667969 126.773438 Z M 129.480469 128.066406 C 129.804688 129.542969 130.234375 130.992188 130.601562 132.445312 C 131.054688 134.152344 131.375 135.890625 131.761719 137.628906 C 132.761719 142.101562 133.679688 146.605469 134.613281 151.085938 C 134.601562 150.628906 134.59375 150.195312 134.582031 149.738281 C 134.519531 147.066406 134.101562 144.355469 133.863281 141.675781 C 133.625 138.949219 133.488281 136.175781 132.457031 133.679688 C 131.816406 132.640625 131.195312 131.597656 130.636719 130.503906 C 130.25 129.707031 129.84375 128.910156 129.480469 128.066406 Z M 153.816406 146.558594 C 153.777344 146.605469 153.757812 146.628906 153.71875 146.671875 C 153.558594 146.902344 153.402344 147.152344 153.246094 147.382812 C 153.226562 147.40625 153.207031 147.429688 153.1875 147.453125 C 153.167969 147.496094 153.148438 147.542969 153.128906 147.566406 C 153.410156 147.261719 153.695312 146.980469 154.003906 146.695312 C 153.957031 146.679688 153.914062 146.660156 153.867188 146.640625 C 153.84375 146.621094 153.820312 146.601562 153.816406 146.558594 Z M 169.035156 125.84375 C 166.257812 128.046875 163.566406 130.289062 161.21875 133.027344 C 159.355469 135.230469 157.960938 137.921875 156.527344 140.398438 C 155.621094 141.988281 154.738281 143.640625 153.902344 145.3125 L 153.960938 145.21875 C 154.808594 143.984375 155.699219 142.785156 156.59375 141.589844 C 157.144531 140.808594 157.71875 140.027344 158.273438 139.25 C 160.921875 135.53125 163.269531 131.898438 166.378906 128.539062 C 167.230469 127.652344 168.121094 126.738281 169.035156 125.84375 Z M 182.53125 119.164062 C 179.28125 124.753906 174.976562 129.65625 170.035156 133.867188 C 166.957031 136.464844 163.765625 139.023438 160.59375 141.515625 C 159.5 142.359375 158.386719 143.222656 157.367188 144.167969 C 157.929688 143.800781 158.511719 143.453125 159.101562 143.128906 C 159.636719 142.738281 160.175781 142.351562 160.714844 141.964844 C 165.007812 139.019531 169.007812 135.640625 172.800781 132.101562 C 174.839844 130.1875 177.082031 128.351562 178.746094 126.097656 C 179.640625 124.640625 180.492188 123.140625 181.316406 121.644531 C 181.738281 120.808594 182.136719 119.996094 182.53125 119.164062 Z M 180.550781 121.242188 C 176.671875 126.050781 171.800781 130.039062 167 134.066406 C 164.082031 136.496094 161.367188 139.285156 158.734375 142.023438 C 158.332031 142.441406 157.925781 142.84375 157.5 143.265625 C 158.378906 142.503906 159.308594 141.785156 160.234375 141.066406 C 163.410156 138.59375 166.597656 136.03125 169.675781 133.4375 C 173.835938 129.871094 177.546875 125.792969 180.550781 121.242188 Z M 182.914062 116.914062 C 181.597656 118.292969 180.210938 119.570312 178.847656 120.910156 C 175.3125 124.386719 171.886719 127.902344 168.234375 131.257812 C 165.722656 133.570312 163.152344 135.957031 160.875 138.492188 C 159.667969 139.84375 158.503906 141.210938 157.316406 142.582031 C 157.640625 142.253906 157.96875 141.925781 158.292969 141.597656 C 160.945312 138.859375 163.660156 136.050781 166.617188 133.59375 C 172.65625 128.585938 178.804688 123.589844 182.914062 116.914062 Z M 183.761719 115.132812 C 182.414062 116.039062 181.039062 116.921875 179.765625 117.972656 C 175.582031 121.496094 171.914062 125.570312 168.101562 129.480469 C 164.253906 133.417969 160.457031 137.542969 157.097656 141.945312 L 157.039062 142.035156 C 158.164062 140.714844 159.308594 139.390625 160.453125 138.089844 C 162.75 135.527344 165.34375 133.140625 167.851562 130.804688 C 171.503906 127.449219 174.910156 123.9375 178.445312 120.460938 C 180.238281 118.742188 182.117188 117.039062 183.761719 115.132812 Z M 176.402344 129.53125 C 175.34375 130.542969 174.238281 131.515625 173.179688 132.507812 C 170.058594 135.410156 166.800781 138.214844 163.371094 140.75 C 164.898438 139.921875 166.445312 139.023438 167.9375 137.980469 C 171.316406 135.644531 174.046875 132.75 176.402344 129.53125 Z M 175.445312 121.113281 C 174.964844 121.429688 174.488281 121.75 174.011719 122.066406 C 171.554688 124.226562 168.984375 126.609375 166.824219 128.941406 C 164.863281 131.066406 163.199219 133.320312 161.582031 135.613281 C 163.550781 133.382812 165.617188 131.207031 167.703125 129.074219 C 170.277344 126.429688 172.800781 123.699219 175.445312 121.113281 Z M 151.085938 87.085938 C 151.320312 89.984375 151.359375 92.917969 151.222656 95.84375 C 151.023438 100.277344 150.617188 104.617188 150.136719 109.066406 C 149.925781 110.976562 149.71875 112.929688 149.730469 114.863281 C 150.265625 112.039062 151.148438 109.234375 151.609375 106.242188 C 152.589844 99.96875 152.4375 93.386719 151.085938 87.085938 Z M 143.511719 84.109375 C 142.820312 90.777344 143.238281 97.730469 144.914062 104.027344 C 145.722656 107.039062 146.824219 109.941406 147.929688 112.863281 C 147.292969 110.082031 146.742188 107.292969 146.191406 104.503906 C 144.867188 97.679688 143.617188 90.957031 143.511719 84.109375 Z M 144.277344 79.070312 C 144.277344 79.09375 144.257812 79.117188 144.261719 79.136719 C 143.597656 87.714844 145.132812 95.960938 146.769531 104.394531 C 147.292969 107.078125 147.832031 109.734375 148.441406 112.414062 C 148.441406 112.109375 148.460938 111.800781 148.484375 111.515625 C 148.019531 109.003906 147.421875 106.480469 147 103.984375 C 145.96875 97.878906 145.328125 91.746094 144.726562 85.566406 C 144.492188 83.210938 144.296875 81.136719 144.277344 79.070312 Z M 149.769531 82.132812 C 150.191406 87.652344 150.09375 93.207031 149.683594 98.65625 C 149.464844 101.609375 149.722656 104.875 149.4375 107.835938 C 149.359375 108.558594 149.28125 109.261719 149.199219 109.941406 C 149.234375 110.417969 149.265625 110.894531 149.324219 111.367188 C 149.398438 110.578125 149.472656 109.8125 149.566406 109.023438 C 150.050781 104.570312 150.453125 100.230469 150.65625 95.820312 C 150.863281 91.476562 150.679688 87.179688 149.996094 82.878906 C 149.941406 82.707031 149.910156 82.558594 149.855469 82.410156 C 149.828125 82.324219 149.796875 82.21875 149.769531 82.132812 Z M 146.9375 68.324219 C 145.761719 76.417969 146.28125 84.800781 147.042969 92.863281 C 147.453125 97.292969 147.835938 101.664062 148.414062 106.058594 C 148.394531 105.800781 148.402344 105.558594 148.382812 105.300781 C 148.152344 101.226562 147.992188 97.210938 147.933594 93.125 C 147.851562 85.710938 147.328125 75.824219 146.9375 68.324219 Z M 147.785156 73.417969 C 148.109375 79.945312 148.445312 87.296875 148.519531 93.125 C 148.578125 97.191406 148.738281 101.203125 148.964844 105.257812 C 148.980469 105.429688 148.992188 105.605469 149.003906 105.777344 C 149.070312 103.402344 148.953125 100.882812 149.136719 98.585938 C 149.621094 92.066406 149.652344 85.316406 148.871094 78.738281 C 148.4375 77.007812 148.089844 75.203125 147.785156 73.417969 Z M 145.980469 71.636719 C 145.609375 73.140625 145.285156 74.644531 144.914062 76.152344 C 144.726562 79.277344 144.976562 82.089844 145.308594 85.480469 C 145.902344 91.53125 146.511719 97.558594 147.511719 103.535156 C 147.105469 99.996094 146.78125 96.472656 146.457031 92.90625 C 145.820312 85.945312 145.339844 78.6875 145.980469 71.636719 Z M 145.980469 71.636719 " fill-opacity="1" fill-rule="evenodd"/></g></g></g></svg>